<svg xmlns="http://www.w3.org/2000/svg" width="153" height="32" fill="none"><path fill="#000" d="M10.384 10.14V21.5H9.28v-5.312H2.544V21.5h-1.12V10.14h1.12v5.056H9.28V10.14h1.104Zm10.916.992h-4.047V21.5h-1.12V11.132h-4.048v-.992H21.3v.992ZM33.066 21.5v-9.248l-4.112 7.184h-.704l-4.128-7.184V21.5h-1.12V10.14h1.152l4.432 7.776 4.464-7.776h1.136V21.5h-1.12Zm3.967 0V10.14h1.12v10.368h6.56v.992h-7.68Zm15.958-11.36h.944l4.72 11.36H57.47l-1.472-3.552h-5.104L49.439 21.5h-1.2l4.752-11.36Zm2.752 6.928-2.288-5.616-2.32 5.616h4.608Zm7.698 4.592a4.146 4.146 0 0 1-1.68-.336 4.363 4.363 0 0 1-1.328-.96 4.603 4.603 0 0 1-.88-1.392 4.561 4.561 0 0 1-.304-1.664c0-.79.176-1.51.528-2.16a4.036 4.036 0 0 1 1.472-1.552c.63-.384 1.355-.576 2.176-.576.779 0 1.467.181 2.064.544.597.352 1.04.832 1.328 1.44l-1.056.336a2.467 2.467 0 0 0-.992-.992 2.69 2.69 0 0 0-1.392-.368c-.555 0-1.061.144-1.52.432a3.192 3.192 0 0 0-1.104 1.184c-.267.501-.4 1.072-.4 1.712 0 .63.139 1.2.416 1.712.277.512.645.923 1.104 1.232.459.299.965.448 1.52.448.363 0 .71-.064 1.04-.192.341-.128.635-.299.88-.512.256-.224.427-.464.512-.72l1.072.32c-.15.395-.4.752-.752 1.072-.341.31-.747.555-1.216.736-.459.17-.955.256-1.488.256Zm4.493-2.56c0-.523.15-.97.448-1.344.299-.384.71-.677 1.232-.88.534-.213 1.147-.32 1.84-.32.406 0 .827.032 1.264.096.438.064.827.16 1.168.288v-.704c0-.704-.208-1.264-.624-1.68-.416-.416-.992-.624-1.728-.624-.448 0-.89.085-1.328.256-.426.16-.874.4-1.344.72l-.416-.768a6.77 6.77 0 0 1 1.6-.832 4.606 4.606 0 0 1 1.6-.288c1.024 0 1.835.293 2.432.88.598.587.896 1.397.896 2.432v3.856c0 .15.032.261.096.336.064.064.166.101.304.112v.864c-.117.01-.218.021-.304.032a.562.562 0 0 1-.192 0c-.266-.01-.47-.096-.608-.256a.85.85 0 0 1-.224-.512l-.016-.608c-.373.48-.858.853-1.456 1.12a4.591 4.591 0 0 1-1.824.384 3.146 3.146 0 0 1-1.456-.336 2.732 2.732 0 0 1-1.008-.928 2.49 2.49 0 0 1-.352-1.296Zm5.584.64c.118-.15.208-.293.272-.432a.898.898 0 0 0 .096-.368v-1.216a6.622 6.622 0 0 0-2.304-.432c-.778 0-1.408.155-1.888.464-.48.31-.72.73-.72 1.264 0 .31.08.603.24.88.16.267.395.49.704.672.31.17.672.256 1.088.256a3.49 3.49 0 0 0 1.456-.304c.459-.203.81-.464 1.056-.784Zm3.247-2.384c0-.79.16-1.51.48-2.16.33-.661.784-1.19 1.36-1.584a3.399 3.399 0 0 1 1.968-.592c.693 0 1.312.187 1.856.56a4.04 4.04 0 0 1 1.296 1.328V9.82h1.088v10.368c0 .15.032.261.096.336.064.064.16.101.288.112v.864a2.218 2.218 0 0 1-.496.032.875.875 0 0 1-.592-.272c-.17-.17-.256-.357-.256-.56v-.816c-.33.544-.779.976-1.344 1.296-.565.32-1.152.48-1.76.48a3.66 3.66 0 0 1-1.6-.352 4.1 4.1 0 0 1-1.264-.96 4.745 4.745 0 0 1-.832-1.376 4.65 4.65 0 0 1-.288-1.616Zm6.96 1.28V16.06a2.814 2.814 0 0 0-.672-1.04c-.31-.32-.661-.57-1.056-.752a2.556 2.556 0 0 0-1.152-.288 2.56 2.56 0 0 0-1.216.288 2.916 2.916 0 0 0-.944.752c-.256.32-.453.683-.592 1.088a3.829 3.829 0 0 0 .016 2.528c.16.405.384.768.672 1.088.288.31.619.55.992.72a2.9 2.9 0 0 0 1.216.256c.277 0 .565-.053.864-.16.299-.107.581-.25.848-.432.277-.192.507-.416.688-.672.181-.256.293-.523.336-.8Zm7.153 3.024a4.106 4.106 0 0 1-1.664-.336 4.239 4.239 0 0 1-1.328-.944 4.605 4.605 0 0 1-.88-1.392 4.608 4.608 0 0 1-.304-1.68c0-.779.176-1.493.528-2.144a4.158 4.158 0 0 1 1.488-1.552c.63-.395 1.344-.592 2.144-.592.822 0 1.536.197 2.144.592a4.198 4.198 0 0 1 1.456 1.568 4.31 4.31 0 0 1 .528 2.112v.256a.758.758 0 0 1-.016.176h-7.136a3.76 3.76 0 0 0 .496 1.6c.288.459.656.827 1.104 1.104.459.267.955.4 1.488.4.544 0 1.056-.139 1.536-.416.49-.277.832-.64 1.024-1.088l.944.256a3.12 3.12 0 0 1-.784 1.072c-.352.32-.768.57-1.248.752-.47.17-.976.256-1.52.256Zm-3.072-4.72h6.16c-.042-.608-.208-1.141-.496-1.6a2.955 2.955 0 0 0-1.104-1.072 2.854 2.854 0 0 0-1.488-.4c-.544 0-1.04.133-1.488.4a3.08 3.08 0 0 0-1.104 1.088 3.496 3.496 0 0 0-.48 1.584Zm21.263 4.56h-1.088v-4.656c0-.97-.155-1.685-.464-2.144-.31-.459-.768-.688-1.376-.688-.63 0-1.195.224-1.696.672-.491.448-.838 1.024-1.04 1.728V21.5h-1.088v-4.656c0-.981-.15-1.696-.448-2.144-.299-.459-.758-.688-1.376-.688-.619 0-1.179.219-1.68.656-.502.437-.854 1.013-1.056 1.728V21.5h-1.088v-8.336h.992v1.888c.352-.65.8-1.152 1.344-1.504a3.365 3.365 0 0 1 1.84-.528c.693 0 1.253.197 1.68.592.426.395.688.912.784 1.552.384-.704.842-1.237 1.376-1.6a3.241 3.241 0 0 1 1.84-.544c.469 0 .864.085 1.184.256.33.17.592.416.784.736.202.31.346.688.432 1.136.096.437.144.928.144 1.472v4.88Zm2.611 2.56c.149.01.293.016.432.016a.84.84 0 0 0 .304-.016.653.653 0 0 0 .368-.224c.117-.128.256-.373.416-.736.16-.363.384-.896.672-1.6l-3.632-8.336h1.152l3.056 7.216 2.816-7.216h1.088l-4.32 10.752c-.075.203-.187.39-.336.56-.149.181-.336.32-.56.416-.213.107-.48.165-.8.176-.096.01-.197.01-.304 0-.096 0-.213-.01-.352-.032v-.976ZM140.145 0h-.097L127 1.314v23.179L140.048 32 153 24.493V1.313L140.145 0Zm11.019 11.355-11.116-6.381V4.88h-.096l-.097-.094v.094l-11.019 6.475V2.909l11.116-1.126 11.212 1.126v8.446ZM139.952 6.38l11.115 6.288-4.35 2.44-6.862-3.942v1.314l5.703 3.284-.87.47-4.833-2.816v1.314l3.673 2.159-.773.469-2.9-1.69v1.314l1.836 1.033-1.739 1.032-11.019-6.288 11.019-6.38Zm-11.116 7.79 11.019 6.38v.939l-7.636-4.41v1.313l7.733 4.504v1.033l-7.733-4.41v1.313l7.733 4.504 7.829-4.598v-4.88l3.286-1.877v9.385l-11.115 6.475-11.116-6.382v-9.29Z"/></svg>