<svg xmlns="http://www.w3.org/2000/svg" width="40" height="40" fill="none"><circle cx="20" cy="20" r="19.5" stroke="#0F805D"/><path fill="#0F805D" d="M28.945 9.765a1.552 1.552 0 0 0-1.572-.244L9.456 16.754a1.543 1.543 0 0 0 .078 2.884L13.4 20.98l2.095 6.926c.004.014.017.023.023.036a.488.488 0 0 0 .319.293c.01.004.017.013.027.015h.006l.003.001a.449.449 0 0 0 .233-.012c.008-.002.016-.002.025-.005a.496.496 0 0 0 .191-.122c.006-.007.016-.008.022-.014l3.013-3.326 4.397 3.405c.267.21.596.322.935.322.734 0 1.367-.514 1.518-1.23l3.262-16.019a1.533 1.533 0 0 0-.524-1.486v.001Zm-12.357 12.53-.707 3.437-1.475-4.878 7.315-3.81-4.997 4.998a.498.498 0 0 0-.136.253Zm8.639 4.772a.54.54 0 0 1-.347.4.525.525 0 0 1-.514-.079L19.603 23.7a.5.5 0 0 0-.676.06l-2.097 2.31.706-3.427 7.189-7.19a.5.5 0 0 0-.584-.797l-10.363 5.398-3.917-1.362A.527.527 0 0 1 9.5 18.2a.532.532 0 0 1 .334-.518l17.914-7.233a.536.536 0 0 1 .558.086.523.523 0 0 1 .182.518l-3.261 16.015Z"/></svg>