<svg xmlns="http://www.w3.org/2000/svg" width="40" height="40" fill="none"><circle cx="20" cy="20" r="19.5" stroke="#0F805D"/><path fill="#0F805D" d="M9 15.926c0-.704.439-1.084 1.316-1.139l3.381.02c.227 0 .378.104.454.311.348 1.036.737 1.93 1.168 2.682a32.6 32.6 0 0 0 1.69 2.6c.061.124.16.186.296.186a.28.28 0 0 0 .25-.145l.067-.228.023-3.583c0-.248-.064-.414-.193-.497-.128-.083-.367-.145-.715-.186-.272-.042-.408-.193-.408-.456 0-.055.008-.096.023-.124.317-.898 1.225-1.346 2.723-1.346l1.27-.021c.575 0 1.052.131 1.43.393.378.263.567.677.567 1.243v4.701a.55.55 0 0 0 .295.104c.227 0 .424-.124.59-.373 1.664-2.126 2.564-3.548 2.7-4.266a.34.34 0 0 1 .046-.104c.105-.207.28-.386.521-.538.242-.152.454-.256.636-.31a.487.487 0 0 1 .204-.042h3.517l.227.02c.303 0 .537.132.703.394a.74.74 0 0 1 .125.27c.023.096.038.192.046.29l.011.165v.145c-.106.566-.374 1.17-.806 1.812-.43.642-.979 1.336-1.645 2.081-.665.746-1.081 1.236-1.248 1.47-.136.166-.204.318-.204.456 0 .11.06.235.182.373l3.313 3.81c.181.222.272.463.272.726 0 .317-.136.58-.409.787a1.788 1.788 0 0 1-.975.352l-.386.02h-3.449a.756.756 0 0 0-.09.01.763.763 0 0 1-.092.011c-.332 0-.642-.131-.93-.393-.106-.11-.817-.925-2.133-2.444a1.167 1.167 0 0 0-.317-.27c-.061.221-.14.539-.239.953-.098.414-.17.711-.215.89l-.068.353c-.152.483-.47.773-.953.87l-.318.02h-2.224c-1.255 0-2.507-.524-3.755-1.574-1.248-1.049-2.371-2.405-3.37-4.07-.998-1.663-1.928-3.6-2.79-5.808A1.532 1.532 0 0 1 9 15.926Zm13.637 5.364c-.318 0-.605-.08-.862-.238-.257-.159-.386-.377-.386-.653v-4.763c0-.276-.075-.473-.227-.59-.151-.117-.416-.176-.794-.176l-1.293.041c-.65 0-1.142.104-1.475.31.665.29.998.76.998 1.41v3.644a1.22 1.22 0 0 1-.454.86 1.38 1.38 0 0 1-.907.341c-.454 0-.802-.2-1.044-.6-1.18-1.63-2.057-3.176-2.632-4.64l-.204-.538-3.018-.02c-.197 0-.307.01-.33.03-.022.021-.033.08-.033.177 0 .124.015.255.045.393l.477 1.16c1.27 2.996 2.65 5.357 4.14 7.083 1.49 1.726 2.954 2.588 4.391 2.588h2.27c.09 0 .158-.024.204-.072.045-.048.083-.142.113-.28l.045-.207.431-1.822c.122-.249.227-.414.318-.497a.846.846 0 0 1 .59-.228c.363 0 .734.2 1.112.6l1.929 2.237c.12.18.25.27.385.27h3.744c.454 0 .681-.104.681-.311a.375.375 0 0 0-.068-.207l-3.29-3.749c-.257-.29-.386-.6-.386-.932 0-.331.121-.649.363-.952.197-.277.579-.736 1.146-1.378a31.187 31.187 0 0 0 1.486-1.801c.424-.56.704-1.067.84-1.523l.068-.269a.295.295 0 0 1-.023-.134.458.458 0 0 0-.022-.156h-3.563a1.235 1.235 0 0 0-.544.373l-.137.393c-.378.953-1.369 2.424-2.972 4.412a1.642 1.642 0 0 1-1.112.414Z"/></svg>