<svg xmlns="http://www.w3.org/2000/svg" width="40" height="40" fill="none"><circle cx="20" cy="20" r="19.5" stroke="#0F805D"/><path fill="#0F805D" d="m23.206 19.69-4.5-3a.375.375 0 0 0-.581.31v6a.365.365 0 0 0 .197.328.42.42 0 0 0 .178.047.337.337 0 0 0 .206-.066l4.5-3a.366.366 0 0 0 0-.618Zm-4.331 2.607v-4.594L22.325 20l-3.45 2.297Zm10.734-7.66a1.913 1.913 0 0 0-1.134-1.274c-3.169-1.22-8.26-1.2-8.475-1.2-.216 0-5.306-.02-8.475 1.2a1.913 1.913 0 0 0-1.134 1.275c-.235.909-.516 2.578-.516 5.362 0 2.785.281 4.453.516 5.363a1.914 1.914 0 0 0 1.134 1.275c3.169 1.218 8.26 1.2 8.475 1.2h.066c.646 0 5.4-.038 8.409-1.2a1.914 1.914 0 0 0 1.134-1.275c.235-.91.516-2.578.516-5.363 0-2.784-.281-4.453-.516-5.362Zm-.73 10.538a1.123 1.123 0 0 1-.676.76c-3.037 1.171-8.147 1.153-8.203 1.153-.056 0-5.166.018-8.203-1.154a1.124 1.124 0 0 1-.675-.759c-.225-.872-.497-2.475-.497-5.175 0-2.7.272-4.303.497-5.175a1.124 1.124 0 0 1 .675-.76c3.037-1.171 8.147-1.152 8.203-1.152.056 0 5.166-.02 8.203 1.153a1.125 1.125 0 0 1 .675.76c.225.871.497 2.474.497 5.174s-.272 4.303-.497 5.175Z"/></svg>